<svg xmlns="http://www.w3.org/2000/svg" viewBox="0 0 210.48 54.7"><defs><style>.cls-1{fill:#2f1356;}</style></defs><g id="Capa_2" data-name="Capa 2"><g id="Capa_1-2" data-name="Capa 1"><path class="cls-1" d="M43.21,39.23,50.1,2.81H60.61L49.25,54H38.64L30.31,19.76,22,54H11.36L0,2.81H10.51l6.93,36.35L25.88,2.81h8.93Z"/><path class="cls-1" d="M86.52,54a11.18,11.18,0,0,1-1-3.41,12.3,12.3,0,0,1-9.6,4.11,13.49,13.49,0,0,1-9.26-3.23A10.41,10.41,0,0,1,63,43.31,10.75,10.75,0,0,1,67.45,34q4.48-3.23,13-3.27h4.68V28.58a6.29,6.29,0,0,0-1.35-4.22,5.36,5.36,0,0,0-4.28-1.58,6,6,0,0,0-4,1.23A4.2,4.2,0,0,0,74,27.39H63.81a10.21,10.21,0,0,1,2-6.12,13.4,13.4,0,0,1,5.76-4.41A21,21,0,0,1,80,15.26q7,0,11.16,3.53t4.13,9.93V45.21c0,3.61.53,6.34,1.52,8.19V54Zm-8.4-7.07a8.74,8.74,0,0,0,4.15-1,6.59,6.59,0,0,0,2.81-2.69V36.7h-3.8q-7.62,0-8.12,5.28l0,.59a4.06,4.06,0,0,0,1.33,3.13A5.19,5.19,0,0,0,78.12,46.93Z"/><path class="cls-1" d="M116.9,38.74l-3.66,3.66V54H103.08V0h10.16V29.92l2-2.53L125,16h12.2L123.4,31.82,138.34,54H126.67Z"/><path class="cls-1" d="M155.36,38.74,151.7,42.4V54H141.54V15.26H151.7V29.92l2-2.53L163.41,16h12.2L161.86,31.82,176.8,54H165.13Z"/><path class="cls-1" d="M200.6,43.49a3.28,3.28,0,0,0-1.84-2.94,21.11,21.11,0,0,0-5.93-1.91q-13.56-2.85-13.57-11.53a10.45,10.45,0,0,1,4.2-8.46q4.2-3.39,11-3.39,7.25,0,11.58,3.41a10.73,10.73,0,0,1,4.35,8.86H200.22a4.91,4.91,0,0,0-1.41-3.61,6,6,0,0,0-4.4-1.42,6.1,6.1,0,0,0-4,1.16,3.65,3.65,0,0,0-1.4,2.95,3.12,3.12,0,0,0,1.6,2.73A16.31,16.31,0,0,0,196,31.13a43.8,43.8,0,0,1,6.4,1.71q8.06,2.94,8,10.23A9.94,9.94,0,0,1,206,51.49q-4.47,3.21-11.54,3.21A20.27,20.27,0,0,1,186,53a14.23,14.23,0,0,1-5.81-4.68,10.84,10.84,0,0,1-2.11-6.41h9.63a5.28,5.28,0,0,0,2,4.14,7.93,7.93,0,0,0,5,1.45,7.36,7.36,0,0,0,4.41-1.11A3.47,3.47,0,0,0,200.6,43.49Z"/></g></g></svg>